<svg xmlns="http://www.w3.org/2000/svg" xmlns:xlink="http://www.w3.org/1999/xlink" id="Calque_1" x="0px" y="0px" viewBox="0 0 3702.1 2500" style="enable-background:new 0 0 3702.1 2500;" xml:space="preserve" width="3702.1"  height="2500" ><polygon points="707.4,802 597.9,802 597.9,6.4 1406.3,6.4 1406.3,115.8 707.4,115.8 " fill="#050303"></polygon><polygon points="3097.9,808.4 2988.4,808.4 2988.4,109.5 2302.2,109.5 2302.2,0 3097.9,0 " fill="#050303"></polygon><polygon points="3104.2,2493.6 2295.8,2493.6 2295.8,2384.2 2994.7,2384.2 2994.7,1698 3104.2,1698 " fill="#050303"></polygon><polygon points="1403.3,2500 607.6,2500 607.6,1691.6 717,1691.6 717,2390.5 1403.3,2390.5 " fill="#050303"></polygon><path d="M1705.7,1102.9h-632.4V470.5h632.4V1102.9z M1182.8,993.4h413.4V580h-413.4V993.4z" fill="#050303"></path><path d="M2627.8,1102.9h-632.4V470.5h632.4V1102.9z M2104.9,993.4h413.4V580h-413.4V993.4z" fill="#050303"></path><path d="M1706.3,2024.4h-632.4V1392h632.4V2024.4z M1183.4,1914.9h413.4v-413.4h-413.4V1914.9z" fill="#050303"></path><g fill="#050303">	<rect x="2074.1" y="1470.7" width="474.9" height="474.9" fill="#050303"></rect></g></svg>