<svg xmlns="http://www.w3.org/2000/svg" xmlns:xlink="http://www.w3.org/1999/xlink" id="Calque_1" x="0px" y="0px" viewBox="0 0 3702.1 2500" style="enable-background:new 0 0 3702.1 2500;" xml:space="preserve" width="3702.1"  height="2500" ><g fill="#050303">	<path d="M1721.7,2.6V2496l-1,3.9L1430.8,1377c96-72.7,157.9-188.1,157.9-317.7c0-113.2-47.3-215.5-123.1-288.1L1720.9,0L1721.7,2.6   z" fill="#050303"></path>	<path d="M1544.2,2500L56.2,705.1L797.9,988c-4.2,23.2-6.4,47.1-6.4,71.5c0,220.1,178.4,398.6,398.5,398.6c19.5,0,38.6-1.4,57.3-4.1   L1544.2,2500L1544.2,2500z" fill="#050303"></path></g><path d="M2618,454.9c-111.3,0-201.6,90.3-201.6,201.7c0,43.3,13.6,83.4,37,116.2l-159.3,182.5h-435.4v111.5h486.1l195.6-224  c23.9,9.8,50.2,15.4,77.6,15.4c111.1,0,201.7-90.6,201.7-201.6C2819.7,545.2,2729.1,454.9,2618,454.9z M2618,746.6  c-49.7,0-90.1-40.6-90.1-90.1c0-49.7,40.4-90.1,90.1-90.1c49.5,0,90.1,40.4,90.1,90.1C2708.1,706,2667.5,746.6,2618,746.6z" fill="#050303"></path><path d="M3323.8,834.1c-91.9,0-169.5,61.8-193.6,145.9H2757L2510,1225.6h-651.4v111.5H2556l247.2-245.6h327  c24.1,84.1,101.9,145.9,193.6,145.9c111.3,0,201.6-90.6,201.6-201.6C3525.4,924.4,3435.1,834.1,3323.8,834.1z M3323.8,1125.8  c-49.5,0-90.1-40.4-90.1-90.1c0-49.7,40.6-90.1,90.1-90.1c49.7,0,90.1,40.4,90.1,90.1C3413.9,1085.5,3373.5,1125.8,3323.8,1125.8z" fill="#050303"></path><path d="M2868.5,1371.2c-91.7,0-169.5,61.8-193.8,145.9h-816v111.5h816c24.3,84.1,101.9,145.9,193.8,145.9  c111.3,0,201.7-90.3,201.7-201.6C3070.2,1461.8,2979.8,1371.2,2868.5,1371.2z M2868.5,1663c-49.5,0-90.1-40.4-90.1-90.1  c0-49.5,40.6-90.1,90.1-90.1c49.7,0,90.1,40.6,90.1,90.1C2958.6,1622.6,2918.3,1663,2868.5,1663z" fill="#050303"></path><path d="M2576.7,1919.7c-36.6,0-70.9,9.8-100.6,27l-162.6-159.9h-454.8v111.5h409.1l130.7,128.7c-14.9,28.1-23.4,60.2-23.4,94.4  c0,111.3,90.6,201.7,201.7,201.7c111.3,0,201.6-90.3,201.6-201.7C2778.4,2010.3,2688.1,1919.7,2576.7,1919.7z M2576.7,2211.5  c-49.5,0-90.1-40.4-90.1-90.1c0-49.5,40.6-90.1,90.1-90.1c49.7,0,90.1,40.6,90.1,90.1C2666.9,2171.1,2626.5,2211.5,2576.7,2211.5z" fill="#050303"></path></svg>